<svg width="36" height="36" viewBox="0 0 36 36" fill="none" xmlns="http://www.w3.org/2000/svg">
<path d="M17.3059 21.1856C17.3952 21.3625 17.442 21.56 17.442 21.7656C17.442 22.1094 17.3103 22.4306 17.0711 22.67L13.883 25.8612C13.6439 26.1006 13.3229 26.2319 12.9795 26.2319C12.6361 26.2319 12.3152 26.1 12.076 25.8612L10.1367 23.92C9.89752 23.6806 9.76578 23.3594 9.76578 23.0156C9.76578 22.6719 9.89752 22.3506 10.1367 22.1112L13.3248 18.92C13.5639 18.6806 13.8849 18.5494 14.2283 18.5494C14.4337 18.5494 14.631 18.5969 14.8077 18.6856L16.0827 17.4094C15.5389 16.9913 14.8839 16.7812 14.2283 16.7812C13.4478 16.7812 12.6679 17.0775 12.076 17.67L8.88788 20.8612C7.70404 22.0462 7.70404 23.985 8.88788 25.17L10.8272 27.1112C11.4192 27.7037 12.199 28 12.9795 28C13.76 28 14.5399 27.7037 15.1318 27.1112L18.3199 23.92C19.4089 22.83 19.495 21.1019 18.5803 19.9094L17.3053 21.1856H17.3059ZM27.0932 10.83L25.1539 8.88875C24.562 8.29625 23.7821 8 23.0016 8C22.2211 8 21.4412 8.29625 20.8493 8.88875L17.6612 12.08C16.5723 13.17 16.4861 14.8981 17.4008 16.0906L18.6758 14.8144C18.5872 14.6375 18.5397 14.44 18.5397 14.2344C18.5397 13.8906 18.6715 13.5694 18.91 13.33L22.0981 10.1388C22.3372 9.89937 22.6582 9.7675 23.0016 9.7675C23.345 9.7675 23.666 9.89937 23.9051 10.1388L25.8444 12.08C26.0836 12.3194 26.2147 12.6406 26.2147 12.9844C26.2147 13.3281 26.083 13.6494 25.8444 13.8888L22.6563 17.08C22.4172 17.3194 22.0962 17.4513 21.7528 17.4513C21.5474 17.4513 21.3501 17.4038 21.1734 17.315L19.8984 18.5912C20.4422 19.0094 21.0972 19.2194 21.7528 19.2194C22.5333 19.2194 23.3132 18.9231 23.9051 18.3306L27.0932 15.1394C28.2771 13.9544 28.2771 12.0156 27.0932 10.8306V10.83ZM12.5543 13.4419L8.80796 9.69187L9.69085 8.80813L13.4372 12.5581L12.5543 13.4419ZM15.4933 8H16.7421V11.75H15.4933V8ZM8.00062 15.5H11.747V16.75H8.00062V15.5ZM23.4274 22.5581L27.1738 26.3081L26.2909 27.1919L22.5445 23.4419L23.4274 22.5581ZM19.2396 24.25H20.4884V28H19.2396V24.25ZM24.2348 19.25H27.9811V20.5H24.2348V19.25Z" fill="white"/>
<path d="M17.93 36C8.04322 36 0 27.9254 0 18C0 8.07545 8.04322 0 17.93 0C27.8167 0 35.8599 8.07545 35.8599 18C35.8599 27.9254 27.8167 36 17.93 36ZM17.93 1.56518C8.90304 1.56518 1.55909 8.93782 1.55909 18C1.55909 27.0622 8.90304 34.4356 17.93 34.4356C26.9569 34.4356 34.3008 27.0622 34.3008 18C34.3008 8.93782 26.9569 1.56518 17.93 1.56518Z" fill="white"/>
</svg>
